PathFileType	4	(X/Y/Z)	/home/nbianco/projects/addbio/data/HamnerRunning2013/Processed/subject20//results/MarkerData/run200.trc
DataRate	CameraRate	NumFrames	NumMarkers	Units	OrigDataRate	OrigDataStartFrame	OrigNumFrames
119.99	119.99	10	42	m	119.99	30	245
Frame#	Time	C7			CLAV			LACR			LASI			LCAL			LFAradius			LFAsuperior			LFAulna			LLEL			LMEL			LMT5			LPSI			LTB1			LTB2			LTB3			LTH1			LTH2			LTH3			LTOE			LUA1			LUA2			LUA3			RACR			RASI			RCAL			RFAradius			RFAsuperior			RFAulna			RLEL			RMEL			RMT5			RPSI			RTB1			RTB2			RTB3			RTH1			RTH2			RTH3			RTOE			RUA1			RUA2			RUA3		
		X1	Y1	Z1	X2	Y2	Z2	X3	Y3	Z3	X4	Y4	Z4	X5	Y5	Z5	X6	Y6	Z6	X7	Y7	Z7	X8	Y8	Z8	X9	Y9	Z9	X10	Y10	Z10	X11	Y11	Z11	X12	Y12	Z12	X13	Y13	Z13	X14	Y14	Z14	X15	Y15	Z15	X16	Y16	Z16	X17	Y17	Z17	X18	Y18	Z18	X19	Y19	Z19	X20	Y20	Z20	X21	Y21	Z21	X22	Y22	Z22	X23	Y23	Z23	X24	Y24	Z24	X25	Y25	Z25	X26	Y26	Z26	X27	Y27	Z27	X28	Y28	Z28	X29	Y29	Z29	X30	Y30	Z30	X31	Y31	Z31	X32	Y32	Z32	X33	Y33	Z33	X34	Y34	Z34	X35	Y35	Z35	X36	Y36	Z36	X37	Y37	Z37	X38	Y38	Z38	X39	Y39	Z39	X40	Y40	Z40	X41	Y41	Z41	X42	Y42	Z42

31	0.483333	0.437938	1.53312	-0.317815	0.567284	1.43646	-0.312461	0.441042	1.47901	-0.510596	0.493297	1.03727	-0.44859	0.39597	0.178202	-0.397827	0.483529	1.19255	-0.530624	0.338232	1.23742	-0.620561	0.464038	1.13456	-0.555053	0.269618	1.25732	-0.62546	0.226712	1.23229	-0.54781	0.57725	0.106792	-0.474006	0.321446	1.04901	-0.374017	0.630417	0.434753	-0.394598	0.560316	0.349505	-0.455605	0.542337	0.265151	-0.38547	0.505997	0.900305	-0.489321	0.601145	0.821459	-0.460061	0.58772	0.667142	-0.464333	0.606371	0.122579	-0.38621	0.385793	1.42331	-0.558661	0.307432	1.38588	-0.531787	0.335885	1.34513	-0.59384	0.499128	1.45836	-0.132809	0.493987	1.0261	-0.204844	0.0713117	0.162053	-0.306931	0.638387	1.19188	-0.163789	0.535864	1.18592	-0.0343187	0.631898	1.12568	-0.150105	0.465138	1.1858	0.010815	0.397255	1.15517	-0.0434123	0.228994	0.0646492	-0.232357	0.32312	1.05163	-0.285013	0.327998	0.395275	-0.281575	0.266735	0.349305	-0.227292	0.233996	0.241994	-0.301709	0.428325	0.839933	-0.173903	0.458666	0.713763	-0.21476	0.346436	0.609403	-0.211892	0.267262	0.0673796	-0.323674	0.490731	1.34787	-0.0702043	0.50984	1.28052	-0.0772301	0.425663	1.26461	-0.0131945
32	0.491667	0.437571	1.53723	-0.317987	0.5668	1.44086	-0.314005	0.439052	1.48312	-0.510635	0.493941	1.04148	-0.44942	0.415401	0.163878	-0.396114	0.48299	1.19715	-0.531711	0.33708	1.24131	-0.621328	0.463655	1.13917	-0.555939	0.268502	1.26078	-0.625934	0.225771	1.2358	-0.548176	0.601641	0.103604	-0.469976	0.32325	1.05325	-0.373919	0.63313	0.434996	-0.394869	0.568289	0.344909	-0.45513	0.555983	0.260147	-0.383977	0.505936	0.904038	-0.489857	0.600168	0.823662	-0.46052	0.583738	0.668514	-0.464665	0.628822	0.122663	-0.381943	0.383933	1.42773	-0.558884	0.30586	1.38987	-0.532638	0.334573	1.34898	-0.594523	0.500619	1.46266	-0.133877	0.496142	1.03012	-0.206723	0.0617924	0.171902	-0.304465	0.636704	1.19634	-0.168747	0.537766	1.19009	-0.0364324	0.630733	1.13014	-0.154924	0.468196	1.19009	0.0102429	0.398621	1.1603	-0.0423544	0.213979	0.0653866	-0.231619	0.325256	1.05585	-0.284834	0.319853	0.400917	-0.278265	0.257132	0.356246	-0.22408	0.224945	0.248069	-0.298017	0.427271	0.843836	-0.173542	0.454461	0.716261	-0.213938	0.340372	0.615269	-0.210301	0.252604	0.0676382	-0.322612	0.49303	1.35259	-0.0707632	0.512544	1.28547	-0.07682	0.429038	1.26944	-0.0121378
33	0.5	0.437197	1.54087	-0.318241	0.566249	1.4448	-0.315482	0.437188	1.4867	-0.510664	0.494727	1.04498	-0.450101	0.434365	0.150859	-0.394623	0.482805	1.20114	-0.532848	0.3363	1.24461	-0.6221	0.463633	1.14315	-0.556924	0.267719	1.26361	-0.626422	0.225199	1.23858	-0.548609	0.624849	0.101009	-0.465458	0.325501	1.0571	-0.373994	0.635108	0.434973	-0.395325	0.575506	0.340588	-0.454672	0.568653	0.255574	-0.38302	0.505472	0.906668	-0.490361	0.598734	0.824574	-0.461403	0.579143	0.668986	-0.465163	0.649704	0.123567	-0.377212	0.382227	1.43164	-0.559123	0.304467	1.39326	-0.533551	0.333465	1.3523	-0.595228	0.501756	1.46649	-0.134975	0.498211	1.03369	-0.208529	0.0530043	0.182127	-0.301698	0.6348	1.20005	-0.173264	0.539269	1.19374	-0.0384048	0.629205	1.13388	-0.159338	0.470807	1.19393	0.00963719	0.399676	1.16504	-0.0412502	0.199384	0.0663958	-0.230633	0.327421	1.05985	-0.284855	0.313424	0.405527	-0.274715	0.249025	0.362555	-0.220879	0.216823	0.253609	-0.294302	0.426196	0.847416	-0.173064	0.450713	0.718959	-0.212309	0.335772	0.6203	-0.208621	0.238106	0.0683784	-0.321691	0.494891	1.35689	-0.0713763	0.514848	1.28991	-0.0765127	0.432048	1.27386	-0.0111482
34	0.508333	0.436835	1.54394	-0.318576	0.565643	1.44821	-0.316874	0.435506	1.48966	-0.510695	0.495619	1.04763	-0.450522	0.452352	0.139315	-0.393011	0.482943	1.20448	-0.534041	0.335884	1.2473	-0.622868	0.463971	1.1465	-0.558019	0.267248	1.26579	-0.626966	0.224996	1.24062	-0.549134	0.646256	0.0989022	-0.460812	0.327753	1.06059	-0.374224	0.636331	0.434702	-0.395828	0.581805	0.33663	-0.454115	0.580209	0.251631	-0.382265	0.504655	0.908132	-0.490793	0.596859	0.824251	-0.462831	0.574028	0.668549	-0.465765	0.668638	0.124852	-0.372712	0.380723	1.43498	-0.559389	0.303311	1.39599	-0.53451	0.332566	1.35503	-0.59593	0.502496	1.46981	-0.136087	0.499968	1.03671	-0.210053	0.0448904	0.192615	-0.298709	0.632752	1.20294	-0.177281	0.540384	1.19683	-0.0401828	0.627344	1.13687	-0.16332	0.472975	1.1973	0.00906848	0.400397	1.16928	-0.0401551	0.18523	0.0677899	-0.229464	0.329425	1.06367	-0.285062	0.308624	0.408877	-0.271218	0.242546	0.367932	-0.217854	0.209435	0.258503	-0.290848	0.425194	0.850535	-0.17258	0.447899	0.721912	-0.209742	0.332909	0.624215	-0.207035	0.223837	0.0696688	-0.320784	0.496315	1.36071	-0.0719961	0.516625	1.29361	-0.0766687	0.434581	1.27782	-0.0103395
35	0.516667	0.436502	1.54636	-0.319001	0.564978	1.45107	-0.318175	0.434082	1.49188	-0.510773	0.496567	1.04933	-0.450644	0.468751	0.129304	-0.390985	0.483381	1.20714	-0.53529	0.335806	1.24936	-0.623636	0.464656	1.14918	-0.559215	0.267071	1.26726	-0.627607	0.225159	1.2419	-0.549772	0.665164	0.0971816	-0.456487	0.329522	1.06373	-0.374621	0.636744	0.434155	-0.396218	0.587028	0.333002	-0.453341	0.590421	0.24839	-0.381332	0.503556	0.908482	-0.49121	0.594581	0.822827	-0.464862	0.568504	0.667243	-0.466399	0.685241	0.126199	-0.36898	0.379474	1.43768	-0.559698	0.302446	1.39799	-0.535495	0.331887	1.35711	-0.596644	0.502824	1.47256	-0.137204	0.501236	1.03913	-0.211201	0.0374089	0.203266	-0.295631	0.630586	1.20498	-0.180819	0.541123	1.19932	-0.0417304	0.62518	1.13907	-0.166887	0.474687	1.20017	0.00860086	0.400791	1.17291	-0.0391277	0.1715	0.0696706	-0.228178	0.331103	1.06724	-0.285421	0.305276	0.410955	-0.268065	0.237693	0.372226	-0.215144	0.202668	0.262818	-0.287807	0.424462	0.853063	-0.172163	0.446542	0.724656	-0.206478	0.331962	0.62685	-0.205632	0.20986	0.0715219	-0.319802	0.497325	1.36399	-0.0725406	0.517916	1.29648	-0.0773043	0.436513	1.28124	-0.00981532
36	0.525	0.436206	1.54805	-0.31953	0.564245	1.45331	-0.319387	0.433003	1.49328	-0.510971	0.497523	1.05008	-0.450524	0.48293	0.120722	-0.388446	0.484109	1.2091	-0.536605	0.336039	1.25074	-0.624433	0.465665	1.15117	-0.560511	0.267177	1.26801	-0.628369	0.225662	1.2424	-0.550537	0.680929	0.0958197	-0.452922	0.330619	1.06647	-0.375183	0.636335	0.433262	-0.396384	0.591026	0.329588	-0.452288	0.598943	0.245723	-0.380031	0.502247	0.907844	-0.491713	0.591966	0.820449	-0.467403	0.562759	0.665175	-0.467011	0.699172	0.127558	-0.366227	0.378542	1.43966	-0.560088	0.301909	1.39921	-0.536499	0.331457	1.35848	-0.597405	0.502757	1.47467	-0.138325	0.502008	1.04091	-0.212026	0.030585	0.214028	-0.292609	0.628283	1.20619	-0.183946	0.541487	1.20114	-0.0430545	0.622744	1.14045	-0.17007	0.475893	1.20248	0.00823433	0.400863	1.17582	-0.0382372	0.15814	0.0720913	-0.226825	0.33242	1.07038	-0.285892	0.303222	0.411912	-0.265431	0.23435	0.37547	-0.212823	0.196537	0.266714	-0.285195	0.424236	0.854904	-0.171834	0.446957	0.726429	-0.20309	0.332982	0.62815	-0.204398	0.196233	0.0739167	-0.318731	0.497931	1.36666	-0.0729438	0.518864	1.29866	-0.0780801	0.437741	1.28403	-0.00963243
37	0.533333	0.43594	1.54894	-0.320184	0.563435	1.45488	-0.320513	0.432344	1.49378	-0.511365	0.498448	1.04994	-0.450289	0.494357	0.113332	-0.385533	0.485132	1.21033	-0.53801	0.336567	1.25137	-0.625306	0.46699	1.15242	-0.561918	0.26758	1.26798	-0.629266	0.226465	1.24211	-0.551445	0.693094	0.0948355	-0.45042	0.33127	1.06864	-0.375853	0.635194	0.431932	-0.396313	0.593654	0.326264	-0.451029	0.605418	0.243358	-0.378431	0.500764	0.906369	-0.492402	0.589114	0.817266	-0.470232	0.55709	0.66251	-0.467591	0.710179	0.128998	-0.36442	0.377993	1.4408	-0.560622	0.301709	1.3996	-0.537532	0.331315	1.35907	-0.598232	0.502344	1.47607	-0.139449	0.502426	1.04206	-0.212628	0.0245499	0.224923	-0.289746	0.625831	1.20658	-0.186706	0.541457	1.20225	-0.0442098	0.620082	1.14102	-0.172863	0.47652	1.20417	0.007909	0.400576	1.17794	-0.0375591	0.145101	0.07505	-0.225447	0.333463	1.07285	-0.286443	0.302398	0.411954	-0.26331	0.232374	0.377829	-0.210883	0.191168	0.27034	-0.282927	0.424713	0.855982	-0.171607	0.449127	0.726719	-0.200159	0.335904	0.628136	-0.203248	0.183033	0.0768176	-0.317596	0.498116	1.36867	-0.073206	0.51956	1.30033	-0.0785793	0.438213	1.28611	-0.00978187
38	0.541667	0.435689	1.54901	-0.320987	0.562566	1.4557	-0.321555	0.432155	1.49338	-0.512016	0.499304	1.04902	-0.450079	0.502715	0.106896	-0.382526	0.486467	1.21082	-0.539517	0.337397	1.2512	-0.626303	0.46864	1.15291	-0.563454	0.268316	1.26716	-0.630315	0.227542	1.24098	-0.552515	0.701457	0.0941022	-0.449053	0.331907	1.07001	-0.376536	0.633493	0.430084	-0.396088	0.594802	0.322955	-0.449783	0.609637	0.241001	-0.376777	0.499097	0.904208	-0.493367	0.586128	0.81344	-0.473139	0.551864	0.659424	-0.468149	0.718142	0.130339	-0.363482	0.377892	1.44103	-0.561389	0.301841	1.39917	-0.538608	0.331511	1.3588	-0.599137	0.501658	1.47669	-0.140573	0.502675	1.04254	-0.213015	0.0195633	0.236054	-0.28708	0.623256	1.2062	-0.189073	0.540982	1.20258	-0.0452607	0.617236	1.14079	-0.175223	0.476496	1.20517	0.00755957	0.399861	1.17926	-0.0371465	0.132379	0.0785247	-0.224094	0.334333	1.07444	-0.287052	0.30285	0.411251	-0.261554	0.231671	0.379523	-0.209254	0.186742	0.273786	-0.280882	0.425994	0.856207	-0.17153	0.452791	0.725654	-0.197931	0.340568	0.626872	-0.202081	0.170346	0.0801769	-0.316438	0.497846	1.36994	-0.0734019	0.519959	1.30158	-0.0785995	0.437935	1.28742	-0.0101973
39	0.55	0.435437	1.54825	-0.321962	0.561697	1.45566	-0.322498	0.432446	1.4921	-0.512951	0.50005	1.04748	-0.44999	0.507919	0.101371	-0.379672	0.488126	1.21052	-0.541112	0.338569	1.25017	-0.627471	0.47064	1.15258	-0.565119	0.269432	1.26553	-0.631541	0.228907	1.239	-0.553774	0.706026	0.0931129	-0.448668	0.332811	1.07034	-0.377154	0.631376	0.427672	-0.395846	0.594436	0.31963	-0.44883	0.611639	0.238415	-0.375369	0.497207	0.901507	-0.494687	0.583084	0.809134	-0.47608	0.547367	0.656042	-0.4687	0.723091	0.130808	-0.363357	0.378297	1.44027	-0.562476	0.302308	1.39788	-0.539743	0.332105	1.35763	-0.600146	0.50078	1.47649	-0.141679	0.502889	1.04238	-0.213065	0.0159966	0.247557	-0.284613	0.620611	1.20508	-0.190971	0.539996	1.20211	-0.0462159	0.614236	1.13977	-0.177101	0.47578	1.20543	0.00716693	0.398672	1.17979	-0.0369951	0.120038	0.0825303	-0.222811	0.335071	1.07505	-0.287696	0.304674	0.409898	-0.259956	0.232243	0.380755	-0.207839	0.183422	0.277095	-0.278977	0.42806	0.855489	-0.171633	0.457612	0.723881	-0.196254	0.346758	0.624457	-0.200818	0.158246	0.0839315	-0.315292	0.497097	1.37042	-0.0736372	0.519928	1.30231	-0.0782137	0.436959	1.28793	-0.0107857
40	0.558333	0.435176	1.54666	-0.32312	0.560912	1.45467	-0.323312	0.433187	1.49001	-0.514163	0.500658	1.0455	-0.45005	0.510004	0.0970037	-0.377074	0.490108	1.20943	-0.542757	0.340135	1.24827	-0.628851	0.473005	1.15144	-0.566887	0.270961	1.26308	-0.632972	0.230613	1.23614	-0.555253	0.706899	0.0909694	-0.448982	0.333911	1.06948	-0.377672	0.628868	0.424677	-0.395738	0.592618	0.316237	-0.448364	0.611705	0.235407	-0.374456	0.495084	0.898387	-0.496387	0.580014	0.804477	-0.479147	0.543628	0.652375	-0.469251	0.72514	0.129078	-0.363925	0.379238	1.43848	-0.563942	0.303135	1.39569	-0.540977	0.333146	1.35553	-0.601311	0.499778	1.47546	-0.14274	0.503103	1.04159	-0.212661	0.0142421	0.259498	-0.282391	0.617936	1.20323	-0.192343	0.538459	1.20088	-0.0469964	0.611088	1.13794	-0.178482	0.474365	1.20492	0.00676354	0.397039	1.17955	-0.0370413	0.108193	0.0871635	-0.221589	0.335655	1.07463	-0.288331	0.30792	0.407945	-0.258336	0.234157	0.38166	-0.20653	0.181304	0.280309	-0.277191	0.430796	0.853789	-0.17185	0.463285	0.722028	-0.194832	0.354227	0.621017	-0.199406	0.146776	0.0880072	-0.314144	0.495883	1.37005	-0.0739866	0.519349	1.30229	-0.0776264	0.435356	1.28763	-0.0114644
